<?xml version="1.0" encoding="utf-8"?>
<!-- Generator: Adobe Illustrator 16.0.2, SVG Export Plug-In . SVG Version: 6.00 Build 0)  -->
<!DOCTYPE svg PUBLIC "-//W3C//DTD SVG 1.1//EN" "http://www.w3.org/Graphics/SVG/1.1/DTD/svg11.dtd">
<svg version="1.1" id="Слой_1" xmlns="http://www.w3.org/2000/svg" xmlns:xlink="http://www.w3.org/1999/xlink" x="0px" y="0px"
	 width="247.995px" height="127.648px" viewBox="0 0 247.995 127.648" enable-background="new 0 0 247.995 127.648"
	 xml:space="preserve">
<g>
	<g>
		<polygon fill="#8A1D18" points="22.933,89.764 247.995,89.764 247.995,0 43.398,0 		"/>
		<polygon fill="#8A1D18" points="20.436,89.764 40.902,0 0,0 0,89.764 		"/>
		<polygon fill="#8A1D18" points="22.378,92.198 14.296,127.648 247.995,127.648 247.995,92.198 		"/>
		<polygon fill="#8A1D18" points="19.88,92.198 0,92.198 0,127.648 11.798,127.648 		"/>
	</g>
	<g>
		<path fill="#FFFFFF" d="M78.112,18.83c3.332,0,7.497,0.573,10.152,1.353l-2.812,6.04c-1.718-0.677-4.999-1.145-7.446-1.145
			c-7.914,0-11.194,1.354-13.537,12.495c-2.395,11.143,0.208,12.86,8.122,12.86c2.447,0,5.936-0.469,7.966-1.145l0.208,6.143
			c-2.967,0.781-7.341,1.302-10.673,1.302c-11.506,0-16.088-4.426-12.964-19.212C60.306,22.683,66.605,18.83,78.112,18.83z"/>
		<path fill="#FFFFFF" d="M117.471,56.004h-8.486c-3.592-9.945-6.143-13.849-8.486-13.849h-4.842l-2.916,13.849h-6.873l7.706-36.289
			h18.9c7.652,0,9.058,4.738,7.861,10.569c-1.145,5.207-4.374,9.684-11.663,9.945C110.964,41.114,113.358,45.383,117.471,56.004z
			 M96.854,36.48h10.256c2.657,0,4.582-1.771,5.364-5.311c0.78-3.801-0.313-5.624-2.865-5.624H99.197L96.854,36.48z"/>
		<path fill="#FFFFFF" d="M159.226,37.521c-3.176,14.995-9.787,19.212-21.293,19.212c-11.559,0-16.401-4.217-13.225-19.212
			c3.124-14.734,9.735-18.691,21.242-18.691C157.457,18.83,162.351,22.787,159.226,37.521z M151.937,37.625
			c2.292-10.987,0.676-12.6-7.289-12.6c-7.967,0-10.309,1.613-12.6,12.6c-2.343,10.934-0.781,12.911,7.185,12.911
			C147.2,50.537,149.594,48.559,151.937,37.625z"/>
		<path fill="#FFFFFF" d="M191.973,26.379c-1.874-0.729-5.622-1.301-9.268-1.301c-5.779,0-8.435,1.197-9.216,4.738
			c-0.573,2.758,0.521,4.008,6.978,4.634c8.277,0.884,11.349,4.008,9.894,10.88c-1.823,8.539-7.603,11.403-18.067,11.403
			c-4.009,0-8.28-0.625-10.985-1.614l2.759-5.935c2.134,0.729,5.882,1.301,9.423,1.301c5.78,0,8.591-1.041,9.424-4.79
			c0.573-2.707-0.365-4.426-7.236-5.05c-7.861-0.78-11.037-3.28-9.633-9.997c1.823-8.538,7.811-11.818,17.962-11.818
			c3.958,0,8.123,0.677,10.777,1.614L191.973,26.379z"/>
		<path fill="#FFFFFF" d="M224.357,26.379c-1.874-0.729-5.625-1.301-9.268-1.301c-5.78,0-8.435,1.197-9.216,4.738
			c-0.573,2.758,0.521,4.008,6.978,4.634c8.277,0.884,11.349,4.008,9.891,10.88c-1.822,8.539-7.601,11.403-18.067,11.403
			c-4.007,0-8.277-0.625-10.983-1.614l2.758-5.935c2.135,0.729,5.884,1.301,9.425,1.301c5.778,0,8.591-1.041,9.423-4.79
			c0.574-2.707-0.364-4.426-7.236-5.05c-7.862-0.78-11.037-3.28-9.631-9.997c1.822-8.538,7.81-11.818,17.961-11.818
			c3.958,0,8.122,0.677,10.777,1.614L224.357,26.379z"/>
	</g>
	<g>
		<g>
			<path fill="#FFFFFF" d="M60.347,101.601c3.631,0,5.405,1.261,5.405,5.742c0,4.481-1.758,5.826-5.405,5.826h-3.979v-11.568H60.347
				z M60.248,103.044h-2.206v8.68h2.206c2.751,0,3.713-0.83,3.713-4.365C63.961,103.642,62.999,103.044,60.248,103.044z"/>
			<path fill="#FFFFFF" d="M75.786,112.937c-0.862,0.265-2.072,0.464-2.868,0.464c-2.487,0-3.996-1.029-3.996-4.481
				c0-3.336,1.376-4.399,3.847-4.399c2.52,0,3.631,0.93,3.548,4.765h-5.72c0.017,2.257,0.796,2.738,2.503,2.738
				c0.597,0,1.708-0.166,2.388-0.398L75.786,112.937z M70.613,108.007h4.145c-0.083-1.793-0.564-2.175-1.923-2.175
				C71.31,105.832,70.746,106.33,70.613,108.007z"/>
			<path fill="#FFFFFF" d="M84.908,104.754h1.625c-0.829,2.771-1.924,5.643-3.067,8.415h-2.04c-0.829-2.872-1.824-5.975-2.901-8.415
				H80.2c0.828,1.991,1.674,4.531,2.337,6.871C83.432,109.351,84.294,107.027,84.908,104.754z"/>
			<path fill="#FFFFFF" d="M95.837,112.937c-0.862,0.265-2.073,0.464-2.869,0.464c-2.487,0-3.996-1.029-3.996-4.481
				c0-3.336,1.376-4.399,3.847-4.399c2.52,0,3.631,0.93,3.548,4.765h-5.72c0.017,2.257,0.796,2.738,2.503,2.738
				c0.597,0,1.708-0.166,2.388-0.398L95.837,112.937z M90.664,108.007h4.145c-0.083-1.793-0.564-2.175-1.923-2.175
				C91.36,105.832,90.796,106.33,90.664,108.007z"/>
			<path fill="#FFFFFF" d="M101.145,110.911c0,0.813,0.183,1.278,0.729,1.892l-1.327,0.731c-0.646-0.664-0.961-1.329-0.961-2.557
				v-9.792h1.559V110.911z"/>
			<path fill="#FFFFFF" d="M104.628,108.919c0-3.436,1.276-4.399,3.913-4.399c2.653,0,3.914,0.963,3.914,4.399
				c0,3.452-1.244,4.481-3.914,4.481C105.889,113.4,104.628,112.371,104.628,108.919z M106.287,108.953
				c0,2.522,0.548,3.12,2.254,3.12c1.708,0,2.255-0.597,2.255-3.12c0-2.638-0.548-3.104-2.255-3.104
				C106.834,105.849,106.287,106.314,106.287,108.953z"/>
			<path fill="#FFFFFF" d="M115.873,105.152c0.911-0.382,2.42-0.631,3.531-0.631c2.686,0,3.913,0.98,3.913,4.415
				c0,3.436-1.292,4.465-3.729,4.465c-1.061,0-1.725-0.299-2.156-0.598v3.552h-1.558V105.152z M117.431,111.011
				c0,0.647,0.896,1.012,1.973,1.012c1.708,0,2.271-0.631,2.271-3.054c0-2.589-0.563-3.054-2.271-3.054
				c-0.696,0-1.443,0.1-1.973,0.299V111.011z"/>
			<path fill="#FFFFFF" d="M128.294,113.168h-1.559v-7.95c0.961-0.415,2.388-0.698,3.564-0.698c0.995,0,1.708,0.166,2.206,0.565
				c0.927-0.332,2.088-0.565,3.034-0.565c2.404,0,3.249,0.88,3.249,3.934v4.714h-1.557v-4.515c0-2.208-0.449-2.689-2.007-2.689
				c-0.481,0-1.293,0.066-1.973,0.282c0.181,0.548,0.297,1.278,0.297,2.208v4.714h-1.574v-4.515c0-2.208-0.415-2.689-1.973-2.689
				c-0.564,0-1.21,0.083-1.708,0.232V113.168z"/>
			<path fill="#FFFFFF" d="M149.006,112.937c-0.862,0.265-2.071,0.464-2.868,0.464c-2.488,0-3.997-1.029-3.997-4.481
				c0-3.336,1.376-4.399,3.847-4.399c2.521,0,3.632,0.93,3.548,4.765h-5.721c0.018,2.257,0.796,2.738,2.504,2.738
				c0.598,0,1.709-0.166,2.387-0.398L149.006,112.937z M143.833,108.007h4.145c-0.082-1.793-0.563-2.175-1.923-2.175
				C144.53,105.832,143.965,106.33,143.833,108.007z"/>
			<path fill="#FFFFFF" d="M154.315,113.168h-1.558v-7.95c0.96-0.415,2.502-0.698,3.68-0.698c2.404,0,3.367,0.88,3.367,3.934v4.714
				h-1.56v-4.515c0-2.208-0.447-2.689-2.122-2.689c-0.68,0-1.228,0.066-1.808,0.232V113.168z"/>
			<path fill="#FFFFFF" d="M165.41,106.148v4.099c0,1.228,0.332,1.743,1.426,1.743c0.564,0,1.078-0.083,1.509-0.232l0.298,1.294
				c-0.53,0.2-1.376,0.349-2.072,0.349c-1.89,0-2.734-0.564-2.734-3.053v-4.199h-1.443v-1.395h1.443v-1.594l1.574-0.647v2.241h2.951
				v1.395H165.41z"/>
			<path fill="#FFFFFF" d="M184.397,108.089h-2.77v-1.411h4.478v6.291c-0.912,0.282-2.635,0.431-3.813,0.431
				c-3.633,0-5.355-1.411-5.355-6.124c0-4.73,1.84-5.958,5.504-5.958c1.044,0,2.469,0.182,3.364,0.431l-0.414,1.493
				c-0.662-0.248-2.006-0.397-2.852-0.397c-2.769,0-3.78,0.547-3.78,4.448c0,3.883,1.012,4.581,3.731,4.581
				c0.714,0,1.475-0.117,1.906-0.217V108.089z"/>
			<path fill="#FFFFFF" d="M189.856,104.754h1.559v0.613c0.315-0.431,1.062-0.847,2.254-0.847c0.283,0,0.581,0.018,0.863,0.051
				v1.527c-0.282-0.05-0.63-0.083-0.979-0.083c-1.126,0-2.138,0.331-2.138,1.029v6.124h-1.559V104.754z"/>
			<path fill="#FFFFFF" d="M196.82,108.919c0-3.436,1.277-4.399,3.914-4.399c2.653,0,3.913,0.963,3.913,4.399
				c0,3.452-1.244,4.481-3.913,4.481C198.082,113.4,196.82,112.371,196.82,108.919z M198.478,108.953c0,2.522,0.548,3.12,2.256,3.12
				c1.709,0,2.254-0.597,2.254-3.12c0-2.638-0.545-3.104-2.254-3.104C199.026,105.849,198.478,106.314,198.478,108.953z"/>
			<path fill="#FFFFFF" d="M213.52,104.754h1.559v7.949c-0.979,0.416-2.521,0.697-3.682,0.697c-2.404,0-3.364-0.896-3.364-3.934
				v-4.713h1.557v4.514c0,2.208,0.449,2.688,2.107,2.688c0.68,0,1.243-0.066,1.823-0.248V104.754z"/>
			<path fill="#FFFFFF" d="M218.728,105.152c0.912-0.382,2.422-0.631,3.533-0.631c2.685,0,3.911,0.98,3.911,4.415
				c0,3.436-1.292,4.465-3.73,4.465c-1.062,0-1.724-0.299-2.154-0.598v3.552h-1.56V105.152z M220.288,111.011
				c0,0.647,0.895,1.012,1.974,1.012c1.708,0,2.271-0.631,2.271-3.054c0-2.589-0.563-3.054-2.271-3.054
				c-0.697,0-1.443,0.1-1.974,0.299V111.011z"/>
		</g>
	</g>
	<g>
		<g>
			<path fill="#FFFFFF" d="M96.319,68.206c1.795,0,2.292,1.1,2.292,2.338c0,1.134-0.556,2.13-2.327,2.13
				c0.579,0.196,1.598,1.563,2.824,3.6h-1.042c-1.285-2.257-2.35-3.496-2.952-3.496h-1.563v3.496h-0.833v-8.068H96.319z
				 M93.553,68.9v3.149h2.708c0.949,0,1.424-0.59,1.424-1.517c0-1.054-0.486-1.632-1.366-1.632H93.553z"/>
			<path fill="#FFFFFF" d="M106.261,73.426h-4.179c0.012,1.899,0.613,2.303,1.968,2.303c0.417,0,1.181-0.126,1.679-0.312
				l0.173,0.695c-0.601,0.184-1.435,0.324-1.921,0.324c-1.772,0-2.732-0.717-2.732-3.113c0-2.292,0.891-3.057,2.627-3.057
				C105.532,70.266,106.261,70.937,106.261,73.426z M102.094,72.743h3.31c-0.069-1.458-0.451-1.77-1.528-1.77
				C102.649,70.973,102.186,71.366,102.094,72.743z"/>
			<path fill="#FFFFFF" d="M113.389,75.973c-0.636,0.289-1.62,0.463-2.36,0.463c-1.679,0-2.374-0.451-2.374-1.968
				c0-1.666,1.007-1.933,2.315-1.933c0.614,0,1.065,0.057,1.667,0.186c0-1.436-0.37-1.737-1.725-1.737
				c-0.557,0-1.216,0.082-1.679,0.278l-0.22-0.706c0.452-0.127,1.157-0.29,1.944-0.29c1.702,0,2.431,0.498,2.431,2.269V75.973z
				 M112.637,75.487v-2.13c-0.429-0.104-0.996-0.151-1.574-0.151c-1.169,0-1.563,0.127-1.563,1.205c0,1.169,0.336,1.342,1.563,1.342
				C111.63,75.753,112.186,75.649,112.637,75.487z"/>
			<path fill="#FFFFFF" d="M117.057,74.77c0,0.566,0.127,0.833,0.557,1.261l-0.581,0.485c-0.485-0.462-0.729-0.845-0.729-1.701
				v-6.899h0.752V74.77z"/>
			<path fill="#FFFFFF" d="M130.309,68.206V68.9h-4.687v2.709h3.321v0.694h-3.321v3.276h4.687v0.694h-5.522v-8.068H130.309z"/>
			<path fill="#FFFFFF" d="M134.845,70.961c-0.995,0-1.493,0.139-1.493,1.054c0,0.578,0.405,0.833,1.458,0.903
				c1.518,0.104,2.165,0.59,2.165,1.679c0,1.389-0.705,1.84-2.256,1.84c-0.58,0-1.529-0.116-2.108-0.313l0.232-0.706
				c0.405,0.185,1.272,0.335,1.875,0.335c0.948,0,1.435-0.161,1.435-1.088c0-0.625-0.313-0.926-1.435-1.019
				c-1.412-0.104-2.188-0.462-2.188-1.563c0-1.377,0.798-1.817,2.315-1.817c0.567,0,1.262,0.116,1.922,0.301l-0.256,0.718
				C136.037,71.1,135.412,70.961,134.845,70.961z"/>
			<path fill="#FFFFFF" d="M140.758,74.306c0,0.995,0.268,1.413,1.089,1.413c0.417,0,0.798-0.059,1.111-0.173l0.173,0.67
				c-0.335,0.117-0.868,0.221-1.285,0.221c-1.332,0-1.841-0.394-1.841-2.119v-3.195h-1.03v-0.694h1.03v-1.227l0.752-0.313v1.54
				h2.166v0.694h-2.166V74.306z"/>
			<path fill="#FFFFFF" d="M149.923,75.973c-0.636,0.289-1.619,0.463-2.359,0.463c-1.68,0-2.374-0.451-2.374-1.968
				c0-1.666,1.007-1.933,2.315-1.933c0.613,0,1.064,0.057,1.667,0.186c0-1.436-0.37-1.737-1.725-1.737
				c-0.556,0-1.216,0.082-1.679,0.278l-0.22-0.706c0.452-0.127,1.156-0.29,1.943-0.29c1.702,0,2.431,0.498,2.431,2.269V75.973z
				 M149.172,75.487v-2.13c-0.429-0.104-0.995-0.151-1.575-0.151c-1.168,0-1.562,0.127-1.562,1.205c0,1.169,0.336,1.342,1.562,1.342
				C148.166,75.753,148.72,75.649,149.172,75.487z"/>
			<path fill="#FFFFFF" d="M153.893,74.306c0,0.995,0.267,1.413,1.089,1.413c0.416,0,0.799-0.059,1.11-0.173l0.175,0.67
				c-0.337,0.117-0.869,0.221-1.285,0.221c-1.331,0-1.84-0.394-1.84-2.119v-3.195h-1.031v-0.694h1.031v-1.227l0.751-0.313v1.54
				h2.165v0.694h-2.165V74.306z"/>
			<path fill="#FFFFFF" d="M163.408,73.426h-4.18c0.013,1.899,0.615,2.303,1.969,2.303c0.416,0,1.18-0.126,1.678-0.312l0.174,0.695
				c-0.602,0.184-1.436,0.324-1.922,0.324c-1.771,0-2.731-0.717-2.731-3.113c0-2.292,0.892-3.057,2.628-3.057
				C162.679,70.266,163.408,70.937,163.408,73.426z M159.241,72.743h3.312c-0.071-1.458-0.452-1.77-1.529-1.77
				C159.795,70.973,159.333,71.366,159.241,72.743z"/>
			<path fill="#FFFFFF" d="M173.592,68.761c-1.437,0-2.351,0.337-2.351,1.586c0,0.81,0.449,1.273,2.048,1.389
				c1.933,0.151,2.791,0.846,2.791,2.338c0,1.713-1.309,2.361-3.276,2.361c-0.719,0-1.666-0.127-2.293-0.324l0.231-0.741
				c0.499,0.185,1.413,0.301,2.049,0.301c1.424,0,2.409-0.335,2.409-1.586c0-0.798-0.44-1.447-2.037-1.563
				c-1.934-0.139-2.813-0.672-2.813-2.154c0-1.724,1.262-2.36,3.229-2.36c0.708,0,1.599,0.126,2.224,0.312l-0.232,0.752
				C175.201,68.889,174.25,68.761,173.592,68.761z"/>
			<path fill="#FFFFFF" d="M178.716,73.323c0-2.386,0.846-3.057,2.65-3.057c1.818,0,2.664,0.671,2.664,3.057
				c0,2.396-0.835,3.113-2.664,3.113C179.55,76.436,178.716,75.719,178.716,73.323z M179.55,73.345c0,1.899,0.451,2.396,1.816,2.396
				c1.379,0,1.829-0.497,1.829-2.396c0-1.991-0.45-2.384-1.829-2.384C180.001,70.961,179.55,71.354,179.55,73.345z"/>
			<path fill="#FFFFFF" d="M187.548,74.77c0,0.566,0.127,0.833,0.554,1.261l-0.578,0.485c-0.486-0.462-0.729-0.845-0.729-1.701
				v-6.899h0.753V74.77z"/>
			<path fill="#FFFFFF" d="M194.435,70.428h0.752v5.545c-0.648,0.289-1.667,0.463-2.361,0.463c-1.691,0-2.304-0.59-2.304-2.709
				v-3.299h0.753v3.149c0,1.783,0.369,2.142,1.678,2.142c0.567,0,1.029-0.059,1.482-0.208V70.428z"/>
			<path fill="#FFFFFF" d="M199.142,74.306c0,0.995,0.268,1.413,1.09,1.413c0.416,0,0.798-0.059,1.11-0.173l0.173,0.67
				c-0.335,0.117-0.867,0.221-1.283,0.221c-1.333,0-1.842-0.394-1.842-2.119v-3.195h-1.028v-0.694h1.028v-1.227l0.752-0.313v1.54
				h2.166v0.694h-2.166V74.306z"/>
			<path fill="#FFFFFF" d="M204.664,68.657c0,0.429-0.116,0.498-0.474,0.498c-0.372,0-0.488-0.069-0.488-0.498
				c0-0.393,0.116-0.452,0.488-0.452C204.547,68.206,204.664,68.264,204.664,68.657z M204.547,70.428h-0.752v5.846h0.752V70.428z"/>
			<path fill="#FFFFFF" d="M207.312,73.323c0-2.386,0.846-3.057,2.651-3.057c1.817,0,2.663,0.671,2.663,3.057
				c0,2.396-0.835,3.113-2.663,3.113C208.147,76.436,207.312,75.719,207.312,73.323z M208.147,73.345
				c0,1.899,0.451,2.396,1.816,2.396c1.378,0,1.828-0.497,1.828-2.396c0-1.991-0.45-2.384-1.828-2.384
				C208.598,70.961,208.147,71.354,208.147,73.345z"/>
			<path fill="#FFFFFF" d="M216.144,76.274h-0.753v-5.545c0.637-0.289,1.654-0.463,2.362-0.463c1.688,0,2.304,0.579,2.304,2.709
				v3.299h-0.754v-3.149c0-1.782-0.37-2.142-1.69-2.142c-0.567,0-1.018,0.059-1.469,0.197V76.274z"/>
			<path fill="#FFFFFF" d="M225.09,70.961c-0.997,0-1.495,0.139-1.495,1.054c0,0.578,0.406,0.833,1.46,0.903
				c1.517,0.104,2.164,0.59,2.164,1.679c0,1.389-0.706,1.84-2.256,1.84c-0.581,0-1.529-0.116-2.107-0.313l0.23-0.706
				c0.406,0.185,1.275,0.335,1.877,0.335c0.948,0,1.434-0.161,1.434-1.088c0-0.625-0.313-0.926-1.434-1.019
				c-1.413-0.104-2.189-0.462-2.189-1.563c0-1.377,0.8-1.817,2.316-1.817c0.567,0,1.262,0.116,1.922,0.301l-0.255,0.718
				C226.283,71.1,225.658,70.961,225.09,70.961z"/>
		</g>
	</g>
</g>
<g>
	<polygon fill="#8A1D18" points="-37.219,287.64 110.29,287.64 110.29,228.809 -23.805,228.809 	"/>
	<polygon fill="#8A1D18" points="-38.854,287.64 -25.44,228.809 -52.248,228.809 -52.248,287.64 	"/>
	<polygon fill="#8A1D18" points="-37.582,289.233 -42.88,312.47 110.29,312.47 110.29,289.233 	"/>
	<polygon fill="#8A1D18" points="-39.218,289.233 -52.248,289.233 -52.248,312.47 -44.516,312.47 	"/>
</g>
<g>
	<path fill="#FFFFFF" d="M-1.057,241.153c2.184,0,4.913,0.375,6.653,0.887l-1.843,3.958c-1.126-0.443-3.275-0.751-4.879-0.751
		c-5.186,0-7.335,0.887-8.871,8.188c-1.57,7.302,0.136,8.428,5.322,8.428c1.604,0,3.89-0.308,5.22-0.751l0.137,4.026
		c-1.945,0.512-4.811,0.853-6.995,0.853c-7.54,0-10.542-2.9-8.496-12.59C-12.726,243.678-8.597,241.153-1.057,241.153z"/>
	<path fill="#FFFFFF" d="M24.739,265.514h-5.561c-2.354-6.517-4.026-9.075-5.562-9.075h-3.173l-1.911,9.075H4.029l5.05-23.78h12.385
		c5.016,0,5.937,3.104,5.152,6.926c-0.751,3.412-2.866,6.346-7.643,6.517C20.474,255.756,22.043,258.554,24.739,265.514z
		 M11.228,252.719h6.721c1.74,0,3.002-1.159,3.514-3.479c0.512-2.491-0.205-3.685-1.876-3.685h-6.824L11.228,252.719z"/>
	<path fill="#FFFFFF" d="M52.104,253.401c-2.081,9.826-6.414,12.59-13.955,12.59c-7.574,0-10.747-2.764-8.666-12.59
		c2.047-9.655,6.38-12.248,13.92-12.248C50.945,241.153,54.152,243.746,52.104,253.401z M47.328,253.47
		c1.501-7.199,0.443-8.257-4.777-8.257c-5.22,0-6.755,1.058-8.256,8.257c-1.536,7.165-0.512,8.462,4.708,8.462
		S45.792,260.635,47.328,253.47z"/>
	<path fill="#FFFFFF" d="M73.568,246.101c-1.228-0.479-3.685-0.854-6.073-0.854c-3.787,0-5.527,0.785-6.039,3.104
		c-0.375,1.809,0.341,2.628,4.572,3.037c5.425,0.58,7.438,2.627,6.482,7.131c-1.194,5.596-4.981,7.472-11.839,7.472
		c-2.627,0-5.425-0.409-7.199-1.058l1.808-3.89c1.399,0.478,3.855,0.854,6.175,0.854c3.788,0,5.63-0.683,6.176-3.14
		c0.375-1.773-0.239-2.899-4.743-3.31c-5.152-0.512-7.233-2.149-6.312-6.551c1.194-5.595,5.118-7.744,11.771-7.744
		c2.593,0,5.323,0.443,7.063,1.058L73.568,246.101z"/>
	<path fill="#FFFFFF" d="M94.792,246.101c-1.229-0.479-3.685-0.854-6.073-0.854c-3.787,0-5.527,0.785-6.039,3.104
		c-0.375,1.809,0.341,2.628,4.572,3.037c5.425,0.58,7.438,2.627,6.482,7.131c-1.194,5.596-4.981,7.472-11.839,7.472
		c-2.627,0-5.425-0.409-7.199-1.058l1.808-3.89c1.399,0.478,3.855,0.854,6.175,0.854c3.787,0,5.63-0.683,6.176-3.14
		c0.375-1.773-0.239-2.899-4.743-3.31c-5.152-0.512-7.233-2.149-6.312-6.551c1.194-5.595,5.118-7.744,11.771-7.744
		c2.593,0,5.323,0.443,7.063,1.058L94.792,246.101z"/>
</g>
<g>
	<g>
		<path fill="#FFFFFF" d="M12.778,272.072c1.755,0,2.62,0.623,2.62,2.807c0,2.175-0.857,2.83-2.62,2.83H11.04v-5.637H12.778z
			 M12.778,272.558h-1.157v4.666h1.157c1.447,0,1.998-0.493,1.998-2.345C14.776,272.913,14.226,272.558,12.778,272.558z"/>
		<path fill="#FFFFFF" d="M20.73,275.72h-2.919c0.008,1.326,0.429,1.609,1.375,1.609c0.291,0,0.825-0.089,1.172-0.219l0.122,0.485
			c-0.421,0.13-1.003,0.227-1.343,0.227c-1.237,0-1.909-0.501-1.909-2.176c0-1.601,0.623-2.135,1.836-2.135
			C20.221,273.512,20.73,273.98,20.73,275.72z M17.819,275.242h2.313c-0.048-1.019-0.315-1.237-1.067-1.237
			C18.208,274.005,17.884,274.28,17.819,275.242z"/>
		<path fill="#FFFFFF" d="M25.286,273.625h0.574c-0.412,1.366-0.946,2.717-1.521,4.084h-0.744c-0.404-1.375-0.906-2.952-1.448-4.084
			h0.59c0.437,1.019,0.906,2.369,1.253,3.583C24.485,276.019,24.954,274.813,25.286,273.625z"/>
		<path fill="#FFFFFF" d="M30.884,275.72h-2.919c0.008,1.326,0.429,1.609,1.375,1.609c0.291,0,0.825-0.089,1.172-0.219l0.122,0.485
			c-0.421,0.13-1.003,0.227-1.343,0.227c-1.237,0-1.909-0.501-1.909-2.176c0-1.601,0.623-2.135,1.836-2.135
			C30.375,273.512,30.884,273.98,30.884,275.72z M27.973,275.242h2.313c-0.048-1.019-0.315-1.237-1.067-1.237
			C28.361,274.005,28.038,274.28,27.973,275.242z"/>
		<path fill="#FFFFFF" d="M33.24,276.657c0,0.396,0.089,0.583,0.388,0.882l-0.404,0.34c-0.339-0.323-0.509-0.591-0.509-1.188v-4.82
			h0.525V276.657z"/>
		<path fill="#FFFFFF" d="M35.214,275.646c0-1.666,0.59-2.135,1.852-2.135c1.27,0,1.86,0.469,1.86,2.135
			c0,1.675-0.583,2.176-1.86,2.176C35.796,277.822,35.214,277.321,35.214,275.646z M35.796,275.663c0,1.326,0.315,1.674,1.27,1.674
			c0.962,0,1.278-0.348,1.278-1.674c0-1.392-0.315-1.666-1.278-1.666C36.112,273.997,35.796,274.271,35.796,275.663z"/>
		<path fill="#FFFFFF" d="M42.511,277.822c-0.582,0-0.922-0.178-1.124-0.34v1.779h-0.525v-5.427
			c0.445-0.202,1.156-0.323,1.649-0.323c1.262,0,1.852,0.469,1.852,2.135C44.363,277.321,43.781,277.822,42.511,277.822z
			 M42.511,274.013c-0.396,0-0.809,0.057-1.124,0.17v2.556c0,0.38,0.518,0.583,1.124,0.583c0.955,0,1.27-0.332,1.27-1.658
			C43.781,274.271,43.466,274.013,42.511,274.013z"/>
		<path fill="#FFFFFF" d="M46.824,277.709h-0.525v-3.874c0.445-0.202,1.1-0.323,1.585-0.323c0.509,0,0.857,0.081,1.1,0.283
			c0.453-0.17,1.043-0.283,1.504-0.283c1.181,0,1.545,0.404,1.545,1.893v2.305h-0.526v-2.2c0-1.245-0.259-1.496-1.116-1.496
			c-0.275,0-0.736,0.041-1.132,0.179c0.105,0.291,0.169,0.688,0.169,1.213v2.305h-0.525v-2.2c0-1.245-0.251-1.496-1.108-1.496
			c-0.315,0-0.696,0.049-0.971,0.138V277.709z"/>
		<path fill="#FFFFFF" d="M57.462,275.72h-2.919c0.008,1.326,0.429,1.609,1.375,1.609c0.291,0,0.825-0.089,1.172-0.219l0.122,0.485
			c-0.421,0.13-1.003,0.227-1.343,0.227c-1.237,0-1.909-0.501-1.909-2.176c0-1.601,0.623-2.135,1.836-2.135
			C56.953,273.512,57.462,273.98,57.462,275.72z M54.55,275.242h2.313c-0.048-1.019-0.315-1.237-1.067-1.237
			C54.939,274.005,54.615,274.28,54.55,275.242z"/>
		<path fill="#FFFFFF" d="M59.817,277.709h-0.525v-3.874c0.445-0.202,1.156-0.323,1.65-0.323c1.181,0,1.609,0.404,1.609,1.893v2.305
			h-0.525v-2.2c0-1.245-0.259-1.496-1.181-1.496c-0.396,0-0.712,0.041-1.027,0.138V277.709z"/>
		<path fill="#FFFFFF" d="M65.319,276.334c0,0.695,0.186,0.987,0.76,0.987c0.291,0,0.558-0.041,0.776-0.122l0.121,0.47
			c-0.234,0.08-0.606,0.153-0.897,0.153c-0.93,0-1.286-0.275-1.286-1.48v-2.231h-0.72v-0.485h0.72v-0.857l0.526-0.218v1.075h1.512
			v0.485h-1.512V276.334z"/>
		<path fill="#FFFFFF" d="M75.31,275.153h-1.472v-0.469h2.054v2.951c-0.437,0.138-1.221,0.187-1.723,0.187
			c-1.747,0-2.58-0.688-2.58-2.984c0-2.305,0.833-2.903,2.58-2.903c0.501,0,1.14,0.089,1.577,0.219l-0.186,0.51
			c-0.34-0.13-0.946-0.211-1.383-0.211c-1.423,0-1.957,0.315-1.957,2.386c0,2.063,0.534,2.467,1.957,2.467
			c0.437,0,0.89-0.073,1.132-0.138V275.153z"/>
		<path fill="#FFFFFF" d="M80.076,273.536v0.542c-0.121-0.017-0.267-0.032-0.42-0.032c-0.606,0-1.148,0.17-1.148,0.541v3.122h-0.525
			v-4.084h0.525v0.291c0.154-0.194,0.566-0.404,1.148-0.404C79.801,273.512,79.946,273.52,80.076,273.536z"/>
		<path fill="#FFFFFF" d="M81.46,275.646c0-1.666,0.59-2.135,1.852-2.135c1.27,0,1.86,0.469,1.86,2.135
			c0,1.675-0.583,2.176-1.86,2.176C82.042,277.822,81.46,277.321,81.46,275.646z M82.042,275.663c0,1.326,0.315,1.674,1.27,1.674
			c0.962,0,1.278-0.348,1.278-1.674c0-1.392-0.315-1.666-1.278-1.666C82.358,273.997,82.042,274.271,82.042,275.663z"/>
		<path fill="#FFFFFF" d="M89.841,273.625h0.525v3.874c-0.453,0.202-1.165,0.323-1.649,0.323c-1.181,0-1.609-0.412-1.609-1.893
			v-2.305h0.525v2.199c0,1.246,0.259,1.497,1.173,1.497c0.396,0,0.72-0.041,1.035-0.146V273.625z"/>
		<path fill="#FFFFFF" d="M94.048,277.822c-0.582,0-0.922-0.178-1.124-0.34v1.779h-0.525v-5.427
			c0.445-0.202,1.156-0.323,1.649-0.323c1.262,0,1.852,0.469,1.852,2.135C95.9,277.321,95.318,277.822,94.048,277.822z
			 M94.048,274.013c-0.396,0-0.809,0.057-1.124,0.17v2.556c0,0.38,0.518,0.583,1.124,0.583c0.955,0,1.27-0.332,1.27-1.658
			C95.318,274.271,95.003,274.013,94.048,274.013z"/>
	</g>
</g>
<g>
	<g>
		<path fill="#FFFFFF" d="M36.369,295.722v0.946h-4.237v2.154h3.009v0.936h-3.009v2.601h4.237v0.946h-5.334v-7.583H36.369z"/>
		<path fill="#FFFFFF" d="M39.317,303.305h-1.021v-5.211c0.63-0.272,1.641-0.457,2.412-0.457c1.575,0,2.205,0.576,2.205,2.578v3.09
			h-1.021v-2.959c0-1.447-0.293-1.763-1.391-1.763c-0.445,0-0.804,0.044-1.184,0.152V303.305z"/>
		<path fill="#FFFFFF" d="M47.523,303.446c-1.619,0-2.412-0.653-2.412-2.905s0.815-2.904,2.575-2.904
			c0.728,0,1.716,0.163,2.314,0.413v4.842c0,2.1-1.108,2.622-2.835,2.622c-0.543,0-1.413-0.142-1.858-0.316l0.239-0.881
			c0.445,0.174,1.152,0.294,1.608,0.294c1.163,0,1.825-0.326,1.825-1.578C48.685,303.239,48.218,303.446,47.523,303.446z
			 M48.979,298.725c-0.369-0.131-0.858-0.196-1.292-0.196c-1.119,0-1.489,0.294-1.489,2.013c0,1.589,0.359,1.991,1.478,1.991
			c0.707,0,1.304-0.239,1.304-0.652V298.725z"/>
		<path fill="#FFFFFF" d="M53.534,296.135c0,0.522-0.152,0.609-0.608,0.609c-0.467,0-0.619-0.087-0.619-0.609
			c0-0.479,0.152-0.544,0.619-0.544C53.382,295.591,53.534,295.656,53.534,296.135z M53.426,303.305h-1.021v-5.516h1.021V303.305z"
			/>
		<path fill="#FFFFFF" d="M56.839,303.305h-1.021v-5.211c0.63-0.272,1.641-0.457,2.412-0.457c1.575,0,2.206,0.576,2.206,2.578v3.09
			h-1.021v-2.959c0-1.447-0.293-1.763-1.391-1.763c-0.445,0-0.804,0.044-1.184,0.152V303.305z"/>
		<path fill="#FFFFFF" d="M67.131,303.152c-0.565,0.174-1.358,0.305-1.879,0.305c-1.63,0-2.619-0.675-2.619-2.938
			c0-2.187,0.902-2.883,2.521-2.883c1.651,0,2.379,0.609,2.325,3.122H63.73c0.011,1.479,0.521,1.795,1.641,1.795
			c0.391,0,1.119-0.108,1.564-0.261L67.131,303.152z M63.741,299.921h2.716c-0.054-1.175-0.369-1.425-1.26-1.425
			C64.197,298.496,63.828,298.822,63.741,299.921z"/>
		<path fill="#FFFFFF" d="M73.914,303.152c-0.565,0.174-1.358,0.305-1.88,0.305c-1.629,0-2.618-0.675-2.618-2.938
			c0-2.187,0.902-2.883,2.521-2.883c1.651,0,2.379,0.609,2.325,3.122h-3.748c0.011,1.479,0.521,1.795,1.64,1.795
			c0.391,0,1.119-0.108,1.564-0.261L73.914,303.152z M70.524,299.921h2.716c-0.054-1.175-0.369-1.425-1.26-1.425
			C70.98,298.496,70.611,298.822,70.524,299.921z"/>
		<path fill="#FFFFFF" d="M76.372,297.789h1.021v0.402c0.206-0.283,0.695-0.555,1.478-0.555c0.185,0,0.38,0.011,0.565,0.032v1.001
			c-0.185-0.032-0.413-0.055-0.641-0.055c-0.739,0-1.401,0.218-1.401,0.675v4.015h-1.021V297.789z"/>
		<path fill="#FFFFFF" d="M82.241,296.135c0,0.522-0.152,0.609-0.608,0.609c-0.467,0-0.619-0.087-0.619-0.609
			c0-0.479,0.152-0.544,0.619-0.544C82.089,295.591,82.241,295.656,82.241,296.135z M82.132,303.305h-1.021v-5.516h1.021V303.305z"
			/>
		<path fill="#FFFFFF" d="M85.545,303.305h-1.021v-5.211c0.63-0.272,1.641-0.457,2.412-0.457c1.575,0,2.205,0.576,2.205,2.578v3.09
			H88.12v-2.959c0-1.447-0.293-1.763-1.391-1.763c-0.445,0-0.804,0.044-1.184,0.152V303.305z"/>
		<path fill="#FFFFFF" d="M93.751,303.446c-1.619,0-2.412-0.653-2.412-2.905s0.815-2.904,2.575-2.904
			c0.728,0,1.716,0.163,2.314,0.413v4.842c0,2.1-1.108,2.622-2.835,2.622c-0.543,0-1.413-0.142-1.858-0.316l0.239-0.881
			c0.445,0.174,1.152,0.294,1.608,0.294c1.163,0,1.825-0.326,1.825-1.578C94.914,303.239,94.447,303.446,93.751,303.446z
			 M95.207,298.725c-0.369-0.131-0.858-0.196-1.292-0.196c-1.119,0-1.489,0.294-1.489,2.013c0,1.589,0.359,1.991,1.478,1.991
			c0.707,0,1.304-0.239,1.304-0.652V298.725z"/>
	</g>
</g>
<g>
	<polygon fill="#8A1D18" points="-38.854,422.108 -25.44,363.277 -52.248,363.277 -52.248,422.108 	"/>
	<polygon fill="#8A1D18" points="-37.218,422.108 110.29,422.108 110.29,363.277 -23.804,363.277 	"/>
	<polygon fill="#8A1D18" points="-39.218,423.705 -52.248,423.705 -52.248,446.938 -44.516,446.938 	"/>
	<polygon fill="#8A1D18" points="-37.583,423.705 -42.88,446.938 110.29,446.938 110.29,423.705 	"/>
</g>
<g>
	<path fill="#FFFFFF" d="M-1.057,375.623c2.184,0,4.913,0.375,6.653,0.887l-1.843,3.958c-1.126-0.443-3.275-0.751-4.879-0.751
		c-5.186,0-7.335,0.888-8.871,8.188c-1.57,7.302,0.136,8.428,5.322,8.428c1.604,0,3.89-0.308,5.22-0.751l0.137,4.026
		c-1.945,0.512-4.811,0.853-6.995,0.853c-7.54,0-10.542-2.9-8.496-12.59C-12.726,378.147-8.597,375.623-1.057,375.623z"/>
	<path fill="#FFFFFF" d="M24.739,399.983h-5.561c-2.354-6.517-4.026-9.075-5.562-9.075h-3.173l-1.911,9.075H4.029l5.05-23.78h12.385
		c5.016,0,5.937,3.104,5.152,6.926c-0.751,3.412-2.866,6.346-7.643,6.517C20.474,390.226,22.043,393.023,24.739,399.983z
		 M11.228,387.188h6.721c1.74,0,3.002-1.159,3.514-3.479c0.512-2.491-0.205-3.685-1.876-3.685h-6.824L11.228,387.188z"/>
	<path fill="#FFFFFF" d="M52.104,387.871c-2.081,9.826-6.414,12.59-13.955,12.59c-7.574,0-10.747-2.764-8.666-12.59
		c2.047-9.655,6.38-12.248,13.92-12.248C50.945,375.623,54.152,378.216,52.104,387.871z M47.328,387.939
		c1.501-7.199,0.443-8.257-4.777-8.257c-5.22,0-6.755,1.058-8.256,8.257c-1.536,7.165-0.512,8.462,4.708,8.462
		S45.792,395.104,47.328,387.939z"/>
	<path fill="#FFFFFF" d="M73.568,380.57c-1.228-0.479-3.685-0.854-6.073-0.854c-3.787,0-5.527,0.785-6.039,3.104
		c-0.375,1.809,0.341,2.628,4.572,3.037c5.425,0.58,7.438,2.627,6.482,7.131c-1.194,5.596-4.981,7.472-11.839,7.472
		c-2.627,0-5.425-0.409-7.199-1.058l1.808-3.89c1.399,0.478,3.855,0.854,6.175,0.854c3.788,0,5.63-0.683,6.176-3.14
		c0.375-1.773-0.239-2.899-4.743-3.31c-5.152-0.512-7.233-2.149-6.312-6.551c1.194-5.595,5.118-7.744,11.771-7.744
		c2.593,0,5.323,0.443,7.063,1.058L73.568,380.57z"/>
	<path fill="#FFFFFF" d="M94.792,380.57c-1.229-0.479-3.685-0.854-6.073-0.854c-3.787,0-5.527,0.785-6.039,3.104
		c-0.375,1.809,0.341,2.628,4.572,3.037c5.425,0.58,7.438,2.627,6.482,7.131c-1.194,5.596-4.981,7.472-11.839,7.472
		c-2.627,0-5.425-0.409-7.199-1.058l1.808-3.89c1.399,0.478,3.855,0.854,6.175,0.854c3.787,0,5.63-0.683,6.176-3.14
		c0.375-1.773-0.239-2.899-4.743-3.31c-5.152-0.512-7.233-2.149-6.312-6.551c1.194-5.595,5.118-7.744,11.771-7.744
		c2.593,0,5.323,0.443,7.063,1.058L94.792,380.57z"/>
</g>
<g>
	<g>
		<path fill="#FFFFFF" d="M12.778,406.542c1.755,0,2.62,0.623,2.62,2.807c0,2.175-0.857,2.83-2.62,2.83H11.04v-5.637H12.778z
			 M12.778,407.027h-1.157v4.666h1.157c1.447,0,1.998-0.493,1.998-2.345C14.776,407.383,14.226,407.027,12.778,407.027z"/>
		<path fill="#FFFFFF" d="M20.73,410.189h-2.919c0.008,1.326,0.429,1.609,1.375,1.609c0.291,0,0.825-0.089,1.172-0.219l0.122,0.485
			c-0.421,0.13-1.003,0.227-1.343,0.227c-1.237,0-1.909-0.502-1.909-2.176c0-1.601,0.623-2.135,1.836-2.135
			C20.221,407.981,20.73,408.45,20.73,410.189z M17.819,409.712h2.313c-0.048-1.019-0.315-1.237-1.067-1.237
			C18.208,408.475,17.884,408.75,17.819,409.712z"/>
		<path fill="#FFFFFF" d="M25.286,408.095h0.574c-0.412,1.367-0.946,2.717-1.521,4.084h-0.744c-0.404-1.375-0.906-2.952-1.448-4.084
			h0.59c0.437,1.019,0.906,2.369,1.253,3.583C24.485,410.488,24.954,409.283,25.286,408.095z"/>
		<path fill="#FFFFFF" d="M30.884,410.189h-2.919c0.008,1.326,0.429,1.609,1.375,1.609c0.291,0,0.825-0.089,1.172-0.219l0.122,0.485
			c-0.421,0.13-1.003,0.227-1.343,0.227c-1.237,0-1.909-0.502-1.909-2.176c0-1.601,0.623-2.135,1.836-2.135
			C30.375,407.981,30.884,408.45,30.884,410.189z M27.973,409.712h2.313c-0.048-1.019-0.315-1.237-1.067-1.237
			C28.361,408.475,28.038,408.75,27.973,409.712z"/>
		<path fill="#FFFFFF" d="M33.24,411.127c0,0.396,0.089,0.583,0.388,0.882l-0.404,0.34c-0.339-0.323-0.509-0.591-0.509-1.188v-4.82
			h0.525V411.127z"/>
		<path fill="#FFFFFF" d="M35.214,410.116c0-1.666,0.59-2.135,1.852-2.135c1.27,0,1.86,0.469,1.86,2.135
			c0,1.674-0.583,2.176-1.86,2.176C35.796,412.292,35.214,411.79,35.214,410.116z M35.796,410.133c0,1.326,0.315,1.674,1.27,1.674
			c0.962,0,1.278-0.348,1.278-1.674c0-1.392-0.315-1.666-1.278-1.666C36.112,408.467,35.796,408.741,35.796,410.133z"/>
		<path fill="#FFFFFF" d="M42.511,412.292c-0.582,0-0.922-0.178-1.124-0.34v1.779h-0.525v-5.427
			c0.445-0.202,1.156-0.323,1.649-0.323c1.262,0,1.852,0.469,1.852,2.135C44.363,411.79,43.781,412.292,42.511,412.292z
			 M42.511,408.482c-0.396,0-0.809,0.057-1.124,0.17v2.556c0,0.38,0.518,0.582,1.124,0.582c0.955,0,1.27-0.331,1.27-1.657
			C43.781,408.741,43.466,408.482,42.511,408.482z"/>
		<path fill="#FFFFFF" d="M46.824,412.179h-0.525v-3.874c0.445-0.202,1.1-0.323,1.585-0.323c0.509,0,0.857,0.081,1.1,0.283
			c0.453-0.17,1.043-0.283,1.504-0.283c1.181,0,1.545,0.404,1.545,1.893v2.305h-0.526v-2.199c0-1.246-0.259-1.497-1.116-1.497
			c-0.275,0-0.736,0.041-1.132,0.179c0.105,0.291,0.169,0.688,0.169,1.213v2.305h-0.525v-2.199c0-1.246-0.251-1.497-1.108-1.497
			c-0.315,0-0.696,0.049-0.971,0.138V412.179z"/>
		<path fill="#FFFFFF" d="M57.462,410.189h-2.919c0.008,1.326,0.429,1.609,1.375,1.609c0.291,0,0.825-0.089,1.172-0.219l0.122,0.485
			c-0.421,0.13-1.003,0.227-1.343,0.227c-1.237,0-1.909-0.502-1.909-2.176c0-1.601,0.623-2.135,1.836-2.135
			C56.953,407.981,57.462,408.45,57.462,410.189z M54.55,409.712h2.313c-0.048-1.019-0.315-1.237-1.067-1.237
			C54.939,408.475,54.615,408.75,54.55,409.712z"/>
		<path fill="#FFFFFF" d="M59.817,412.179h-0.525v-3.874c0.445-0.202,1.156-0.323,1.65-0.323c1.181,0,1.609,0.404,1.609,1.893v2.305
			h-0.525v-2.199c0-1.246-0.259-1.497-1.181-1.497c-0.396,0-0.712,0.041-1.027,0.138V412.179z"/>
		<path fill="#FFFFFF" d="M65.319,410.804c0,0.695,0.186,0.986,0.76,0.986c0.291,0,0.558-0.04,0.776-0.121l0.121,0.47
			c-0.234,0.08-0.606,0.153-0.897,0.153c-0.93,0-1.286-0.275-1.286-1.48v-2.231h-0.72v-0.485h0.72v-0.857l0.526-0.218v1.075h1.512
			v0.485h-1.512V410.804z"/>
		<path fill="#FFFFFF" d="M75.31,409.623h-1.472v-0.469h2.054v2.951c-0.437,0.138-1.221,0.187-1.723,0.187
			c-1.747,0-2.58-0.688-2.58-2.984c0-2.305,0.833-2.903,2.58-2.903c0.501,0,1.14,0.089,1.577,0.219l-0.186,0.509
			c-0.34-0.129-0.946-0.21-1.383-0.21c-1.423,0-1.957,0.315-1.957,2.386c0,2.063,0.534,2.467,1.957,2.467
			c0.437,0,0.89-0.073,1.132-0.138V409.623z"/>
		<path fill="#FFFFFF" d="M80.076,408.006v0.542c-0.121-0.017-0.267-0.032-0.42-0.032c-0.606,0-1.148,0.169-1.148,0.541v3.122
			h-0.525v-4.084h0.525v0.291c0.154-0.194,0.566-0.404,1.148-0.404C79.801,407.981,79.946,407.989,80.076,408.006z"/>
		<path fill="#FFFFFF" d="M81.46,410.116c0-1.666,0.59-2.135,1.852-2.135c1.27,0,1.86,0.469,1.86,2.135
			c0,1.674-0.583,2.176-1.86,2.176C82.042,412.292,81.46,411.79,81.46,410.116z M82.042,410.133c0,1.326,0.315,1.674,1.27,1.674
			c0.962,0,1.278-0.348,1.278-1.674c0-1.392-0.315-1.666-1.278-1.666C82.358,408.467,82.042,408.741,82.042,410.133z"/>
		<path fill="#FFFFFF" d="M89.841,408.095h0.525v3.874c-0.453,0.202-1.165,0.323-1.649,0.323c-1.181,0-1.609-0.412-1.609-1.893
			v-2.305h0.525v2.199c0,1.246,0.259,1.496,1.173,1.496c0.396,0,0.72-0.04,1.035-0.146V408.095z"/>
		<path fill="#FFFFFF" d="M94.048,412.292c-0.582,0-0.922-0.178-1.124-0.34v1.779h-0.525v-5.427
			c0.445-0.202,1.156-0.323,1.649-0.323c1.262,0,1.852,0.469,1.852,2.135C95.9,411.79,95.318,412.292,94.048,412.292z
			 M94.048,408.482c-0.396,0-0.809,0.057-1.124,0.17v2.556c0,0.38,0.518,0.582,1.124,0.582c0.955,0,1.27-0.331,1.27-1.657
			C95.318,408.741,95.003,408.482,94.048,408.482z"/>
	</g>
</g>
<g>
	<g>
		<path fill="#FFFFFF" d="M52.017,437.723h-1.38c-1.195-2.1-2.042-3.09-2.575-3.09h-1.238v3.09h-1.097v-7.583h3.661
			c1.641,0,2.119,1.012,2.119,2.209c0,1.065-0.5,2.013-2.086,2.034C49.953,434.567,50.778,435.655,52.017,437.723z M46.824,433.697
			h2.347c0.717,0,1.108-0.468,1.108-1.272c0-0.882-0.38-1.35-1.065-1.35h-2.39V433.697z"/>
		<path fill="#FFFFFF" d="M58.138,437.57c-0.565,0.174-1.358,0.305-1.879,0.305c-1.63,0-2.619-0.675-2.619-2.938
			c0-2.187,0.902-2.883,2.521-2.883c1.651,0,2.379,0.609,2.325,3.122h-3.749c0.011,1.479,0.521,1.795,1.641,1.795
			c0.391,0,1.119-0.108,1.564-0.261L58.138,437.57z M54.748,434.339h2.716c-0.054-1.175-0.369-1.425-1.26-1.425
			C55.204,432.914,54.835,433.24,54.748,434.339z"/>
		<path fill="#FFFFFF" d="M64.214,433.208c-0.446-0.163-1.054-0.283-1.597-0.283c-0.793,0-1.195,0.098-1.195,0.816
			c0,0.456,0.304,0.642,1.25,0.729c1.38,0.119,1.978,0.555,1.978,1.61c0,1.382-0.804,1.795-2.238,1.795
			c-0.565,0-1.445-0.108-1.978-0.294l0.25-0.87c0.391,0.163,1.141,0.294,1.706,0.294c0.804,0,1.217-0.12,1.217-0.849
			c0-0.49-0.261-0.719-1.271-0.806c-1.271-0.108-1.966-0.445-1.966-1.522c0-1.371,0.858-1.773,2.271-1.773
			c0.554,0,1.25,0.108,1.836,0.282L64.214,433.208z"/>
		<path fill="#FFFFFF" d="M66.64,434.938c0-2.252,0.836-2.883,2.564-2.883c1.738,0,2.564,0.631,2.564,2.883
			c0,2.263-0.815,2.938-2.564,2.938C67.465,437.875,66.64,437.2,66.64,434.938z M67.726,434.959c0,1.654,0.358,2.046,1.478,2.046
			s1.478-0.392,1.478-2.046c0-1.729-0.358-2.034-1.478-2.034S67.726,433.229,67.726,434.959z"/>
		<path fill="#FFFFFF" d="M77.583,432.207h1.021v5.211c-0.641,0.272-1.651,0.457-2.412,0.457c-1.575,0-2.205-0.588-2.205-2.578
			v-3.09h1.021v2.959c0,1.447,0.293,1.763,1.38,1.763c0.445,0,0.815-0.044,1.195-0.163V432.207z"/>
		<path fill="#FFFFFF" d="M80.999,432.207h1.021v0.402c0.206-0.283,0.695-0.555,1.478-0.555c0.185,0,0.38,0.011,0.565,0.032v1.001
			c-0.185-0.032-0.413-0.055-0.641-0.055c-0.739,0-1.401,0.218-1.401,0.675v4.015h-1.021V432.207z"/>
		<path fill="#FFFFFF" d="M89.888,437.581c-0.424,0.186-1.13,0.294-1.63,0.294c-1.695,0-2.694-0.675-2.694-2.938
			c0-2.252,1.011-2.883,2.694-2.883c0.5,0,1.217,0.108,1.63,0.261l-0.271,0.914c-0.37-0.163-0.858-0.25-1.315-0.25
			c-1.119,0-1.651,0.271-1.651,1.979c0,1.621,0.533,1.991,1.651,1.991c0.478,0,0.945-0.12,1.315-0.271L89.888,437.581z"/>
		<path fill="#FFFFFF" d="M95.964,437.57c-0.565,0.174-1.358,0.305-1.879,0.305c-1.63,0-2.619-0.675-2.619-2.938
			c0-2.187,0.902-2.883,2.521-2.883c1.651,0,2.379,0.609,2.325,3.122h-3.749c0.011,1.479,0.521,1.795,1.641,1.795
			c0.391,0,1.119-0.108,1.564-0.261L95.964,437.57z M92.574,434.339h2.716c-0.054-1.175-0.369-1.425-1.26-1.425
			C93.03,432.914,92.661,433.24,92.574,434.339z"/>
	</g>
</g>
<g>
	<polygon fill="#8A1D18" points="188.081,286.247 201.494,227.415 174.685,227.415 174.685,286.247 	"/>
	<polygon fill="#8A1D18" points="189.352,287.843 184.054,311.077 337.223,311.077 337.223,287.843 	"/>
	<polygon fill="#8A1D18" points="189.715,286.247 337.223,286.247 337.223,227.415 203.128,227.415 	"/>
	<polygon fill="#8A1D18" points="187.716,287.843 174.685,287.843 174.685,311.077 182.419,311.077 	"/>
</g>
<g>
	<path fill="#FFFFFF" d="M225.877,239.761c2.184,0,4.913,0.375,6.653,0.887l-1.843,3.958c-1.126-0.443-3.275-0.751-4.879-0.751
		c-5.186,0-7.336,0.887-8.871,8.188c-1.569,7.302,0.137,8.428,5.323,8.428c1.604,0,3.889-0.308,5.22-0.751l0.137,4.026
		c-1.945,0.512-4.811,0.853-6.994,0.853c-7.541,0-10.543-2.9-8.496-12.59C214.208,242.285,218.337,239.761,225.877,239.761z"/>
	<path fill="#FFFFFF" d="M251.673,264.121h-5.562c-2.354-6.517-4.026-9.075-5.562-9.075h-3.173l-1.911,9.075h-4.503l5.049-23.78
		h12.386c5.015,0,5.937,3.104,5.151,6.926c-0.75,3.412-2.865,6.346-7.643,6.517C247.409,254.363,248.978,257.161,251.673,264.121z
		 M238.162,251.326h6.722c1.74,0,3.003-1.159,3.515-3.479c0.512-2.491-0.205-3.685-1.877-3.685h-6.823L238.162,251.326z"/>
	<path fill="#FFFFFF" d="M279.04,252.009c-2.082,9.826-6.415,12.59-13.955,12.59c-7.574,0-10.747-2.764-8.666-12.59
		c2.047-9.655,6.38-12.248,13.921-12.248C277.879,239.761,281.086,242.354,279.04,252.009z M274.262,252.077
		c1.502-7.199,0.444-8.257-4.776-8.257c-5.22,0-6.755,1.058-8.257,8.257c-1.535,7.165-0.512,8.462,4.709,8.462
		C271.158,260.539,272.727,259.242,274.262,252.077z"/>
	<path fill="#FFFFFF" d="M300.502,244.708c-1.228-0.479-3.685-0.854-6.072-0.854c-3.787,0-5.527,0.785-6.039,3.104
		c-0.376,1.809,0.341,2.628,4.571,3.037c5.425,0.58,7.438,2.627,6.482,7.131c-1.193,5.596-4.98,7.472-11.839,7.472
		c-2.627,0-5.425-0.409-7.199-1.058l1.809-3.89c1.398,0.478,3.855,0.854,6.176,0.854c3.787,0,5.629-0.683,6.175-3.14
		c0.376-1.773-0.238-2.899-4.742-3.31c-5.151-0.512-7.233-2.149-6.312-6.551c1.193-5.595,5.117-7.744,11.771-7.744
		c2.593,0,5.322,0.443,7.063,1.058L300.502,244.708z"/>
	<path fill="#FFFFFF" d="M321.727,244.708c-1.228-0.479-3.685-0.854-6.072-0.854c-3.787,0-5.527,0.785-6.039,3.104
		c-0.376,1.809,0.341,2.628,4.571,3.037c5.425,0.58,7.438,2.627,6.482,7.131c-1.193,5.596-4.98,7.472-11.839,7.472
		c-2.627,0-5.425-0.409-7.199-1.058l1.809-3.89c1.398,0.478,3.855,0.854,6.176,0.854c3.787,0,5.629-0.683,6.175-3.14
		c0.376-1.773-0.238-2.899-4.742-3.31c-5.151-0.512-7.233-2.149-6.312-6.551c1.193-5.595,5.117-7.744,11.771-7.744
		c2.593,0,5.322,0.443,7.063,1.058L321.727,244.708z"/>
</g>
<g>
	<g>
		<path fill="#FFFFFF" d="M239.713,270.68c1.755,0,2.62,0.623,2.62,2.807c0,2.175-0.857,2.83-2.62,2.83h-1.739v-5.637H239.713z
			 M239.713,271.165h-1.156v4.666h1.156c1.447,0,1.997-0.493,1.997-2.345C241.71,271.521,241.161,271.165,239.713,271.165z"/>
		<path fill="#FFFFFF" d="M247.667,274.327h-2.92c0.008,1.326,0.429,1.609,1.375,1.609c0.291,0,0.824-0.089,1.173-0.219l0.121,0.485
			c-0.421,0.13-1.003,0.227-1.343,0.227c-1.237,0-1.908-0.501-1.908-2.176c0-1.601,0.622-2.135,1.836-2.135
			C247.157,272.119,247.667,272.588,247.667,274.327z M244.754,273.85h2.313c-0.049-1.019-0.315-1.237-1.067-1.237
			C245.143,272.612,244.819,272.888,244.754,273.85z"/>
		<path fill="#FFFFFF" d="M252.221,272.232h0.574c-0.412,1.366-0.946,2.717-1.521,4.084h-0.744
			c-0.404-1.375-0.905-2.952-1.447-4.084h0.591c0.437,1.019,0.905,2.369,1.253,3.583C251.42,274.626,251.89,273.421,252.221,272.232
			z"/>
		<path fill="#FFFFFF" d="M257.819,274.327H254.9c0.008,1.326,0.429,1.609,1.375,1.609c0.291,0,0.824-0.089,1.173-0.219l0.121,0.485
			c-0.421,0.13-1.003,0.227-1.343,0.227c-1.237,0-1.908-0.501-1.908-2.176c0-1.601,0.622-2.135,1.836-2.135
			C257.31,272.119,257.819,272.588,257.819,274.327z M254.908,273.85h2.313c-0.049-1.019-0.315-1.237-1.067-1.237
			C255.296,272.612,254.973,272.888,254.908,273.85z"/>
		<path fill="#FFFFFF" d="M260.175,275.265c0,0.396,0.089,0.583,0.388,0.882l-0.404,0.34c-0.34-0.323-0.51-0.591-0.51-1.188v-4.82
			h0.526V275.265z"/>
		<path fill="#FFFFFF" d="M262.15,274.254c0-1.666,0.59-2.135,1.852-2.135c1.27,0,1.86,0.469,1.86,2.135
			c0,1.675-0.582,2.176-1.86,2.176C262.732,276.43,262.15,275.929,262.15,274.254z M262.732,274.271c0,1.326,0.315,1.674,1.27,1.674
			c0.963,0,1.278-0.348,1.278-1.674c0-1.392-0.315-1.666-1.278-1.666C263.047,272.604,262.732,272.879,262.732,274.271z"/>
		<path fill="#FFFFFF" d="M269.447,276.43c-0.583,0-0.922-0.178-1.124-0.34v1.779h-0.526v-5.427c0.445-0.202,1.157-0.323,1.65-0.323
			c1.262,0,1.852,0.469,1.852,2.135C271.298,275.929,270.716,276.43,269.447,276.43z M269.447,272.62
			c-0.396,0-0.809,0.057-1.124,0.17v2.556c0,0.38,0.518,0.583,1.124,0.583c0.954,0,1.27-0.332,1.27-1.658
			C270.716,272.879,270.401,272.62,269.447,272.62z"/>
		<path fill="#FFFFFF" d="M273.759,276.316h-0.526v-3.874c0.445-0.202,1.101-0.323,1.586-0.323c0.509,0,0.856,0.081,1.1,0.283
			c0.453-0.17,1.043-0.283,1.504-0.283c1.181,0,1.545,0.404,1.545,1.893v2.305h-0.525v-2.2c0-1.245-0.26-1.496-1.116-1.496
			c-0.275,0-0.736,0.041-1.133,0.179c0.105,0.291,0.17,0.688,0.17,1.213v2.305h-0.525v-2.2c0-1.245-0.251-1.496-1.108-1.496
			c-0.315,0-0.695,0.049-0.97,0.138V276.316z"/>
		<path fill="#FFFFFF" d="M284.397,274.327h-2.919c0.008,1.326,0.429,1.609,1.375,1.609c0.291,0,0.824-0.089,1.173-0.219
			l0.121,0.485c-0.421,0.13-1.003,0.227-1.343,0.227c-1.237,0-1.908-0.501-1.908-2.176c0-1.601,0.622-2.135,1.836-2.135
			C283.888,272.119,284.397,272.588,284.397,274.327z M281.486,273.85h2.313c-0.049-1.019-0.315-1.237-1.067-1.237
			C281.875,272.612,281.551,272.888,281.486,273.85z"/>
		<path fill="#FFFFFF" d="M286.753,276.316h-0.526v-3.874c0.445-0.202,1.157-0.323,1.65-0.323c1.181,0,1.609,0.404,1.609,1.893
			v2.305h-0.526v-2.2c0-1.245-0.259-1.496-1.181-1.496c-0.396,0-0.711,0.041-1.026,0.138V276.316z"/>
		<path fill="#FFFFFF" d="M292.254,274.941c0,0.695,0.186,0.987,0.76,0.987c0.292,0,0.559-0.041,0.776-0.122l0.122,0.47
			c-0.235,0.08-0.606,0.153-0.898,0.153c-0.93,0-1.285-0.275-1.285-1.48v-2.231h-0.72v-0.485h0.72v-0.857l0.525-0.218v1.075h1.513
			v0.485h-1.513V274.941z"/>
		<path fill="#FFFFFF" d="M302.245,273.761h-1.472v-0.469h2.054v2.951c-0.437,0.138-1.221,0.187-1.723,0.187
			c-1.746,0-2.579-0.688-2.579-2.984c0-2.305,0.833-2.903,2.579-2.903c0.502,0,1.141,0.089,1.577,0.219l-0.186,0.51
			c-0.34-0.13-0.946-0.211-1.383-0.211c-1.424,0-1.957,0.315-1.957,2.386c0,2.063,0.533,2.467,1.957,2.467
			c0.437,0,0.89-0.073,1.132-0.138V273.761z"/>
		<path fill="#FFFFFF" d="M307.011,272.144v0.542c-0.121-0.017-0.267-0.032-0.42-0.032c-0.606,0-1.148,0.17-1.148,0.541v3.122
			h-0.526v-4.084h0.526v0.291c0.153-0.194,0.565-0.404,1.148-0.404C306.737,272.119,306.882,272.127,307.011,272.144z"/>
		<path fill="#FFFFFF" d="M308.396,274.254c0-1.666,0.59-2.135,1.852-2.135c1.27,0,1.86,0.469,1.86,2.135
			c0,1.675-0.582,2.176-1.86,2.176C308.978,276.43,308.396,275.929,308.396,274.254z M308.978,274.271
			c0,1.326,0.315,1.674,1.27,1.674c0.963,0,1.278-0.348,1.278-1.674c0-1.392-0.315-1.666-1.278-1.666
			C309.293,272.604,308.978,272.879,308.978,274.271z"/>
		<path fill="#FFFFFF" d="M316.776,272.232h0.526v3.874c-0.453,0.202-1.165,0.323-1.65,0.323c-1.181,0-1.609-0.412-1.609-1.893
			v-2.305h0.526v2.199c0,1.246,0.259,1.497,1.172,1.497c0.396,0,0.72-0.041,1.035-0.146V272.232z"/>
		<path fill="#FFFFFF" d="M320.984,276.43c-0.583,0-0.922-0.178-1.124-0.34v1.779h-0.526v-5.427c0.445-0.202,1.157-0.323,1.65-0.323
			c1.262,0,1.852,0.469,1.852,2.135C322.835,275.929,322.253,276.43,320.984,276.43z M320.984,272.62
			c-0.396,0-0.809,0.057-1.124,0.17v2.556c0,0.38,0.518,0.583,1.124,0.583c0.954,0,1.27-0.332,1.27-1.658
			C322.253,272.879,321.938,272.62,320.984,272.62z"/>
	</g>
</g>
<g>
	<g>
		<path fill="#FFFFFF" d="M288.048,295.833c-0.391-0.152-1.238-0.271-1.934-0.271c-1.271,0-1.955,0.282-1.955,1.24
			c0,0.663,0.358,1.012,1.792,1.131c1.782,0.163,2.575,0.816,2.575,2.23c0,1.697-1.151,2.307-3.161,2.307
			c-0.761,0-1.663-0.131-2.26-0.326l0.271-0.958c0.467,0.152,1.293,0.272,1.966,0.272c1.271,0,2.01-0.272,2.01-1.24
			c0-0.664-0.348-1.143-1.825-1.273c-1.749-0.141-2.553-0.652-2.553-2.045c0-1.708,1.151-2.35,3.14-2.35
			c0.739,0,1.608,0.13,2.194,0.315L288.048,295.833z"/>
		<path fill="#FFFFFF" d="M295.071,302.165c-0.565,0.174-1.358,0.305-1.88,0.305c-1.63,0-2.618-0.675-2.618-2.938
			c0-2.187,0.902-2.883,2.521-2.883c1.651,0,2.38,0.609,2.325,3.122h-3.748c0.011,1.479,0.521,1.795,1.641,1.795
			c0.391,0,1.119-0.108,1.564-0.261L295.071,302.165z M291.681,298.934h2.716c-0.055-1.175-0.369-1.425-1.26-1.425
			C292.137,297.509,291.768,297.835,291.681,298.934z"/>
		<path fill="#FFFFFF" d="M297.529,296.802h1.021v0.402c0.206-0.283,0.695-0.555,1.478-0.555c0.185,0,0.38,0.011,0.564,0.032v1.001
			c-0.185-0.032-0.412-0.055-0.641-0.055c-0.738,0-1.401,0.218-1.401,0.675v4.015h-1.021V296.802z"/>
		<path fill="#FFFFFF" d="M305.789,296.802h1.064c-0.543,1.816-1.261,3.699-2.01,5.516h-1.337c-0.543-1.882-1.194-3.917-1.9-5.516
			h1.097c0.543,1.306,1.098,2.97,1.532,4.504C304.821,299.815,305.386,298.292,305.789,296.802z"/>
		<path fill="#FFFFFF" d="M309.757,295.147c0,0.522-0.152,0.609-0.608,0.609c-0.467,0-0.619-0.087-0.619-0.609
			c0-0.479,0.152-0.544,0.619-0.544C309.605,294.604,309.757,294.669,309.757,295.147z M309.649,302.317h-1.021v-5.516h1.021
			V302.317z"/>
		<path fill="#FFFFFF" d="M316.191,302.176c-0.424,0.186-1.13,0.294-1.63,0.294c-1.694,0-2.694-0.675-2.694-2.938
			c0-2.252,1.011-2.883,2.694-2.883c0.5,0,1.217,0.108,1.63,0.261l-0.271,0.914c-0.37-0.163-0.858-0.25-1.314-0.25
			c-1.119,0-1.651,0.271-1.651,1.979c0,1.621,0.532,1.991,1.651,1.991c0.478,0,0.944-0.12,1.314-0.272L316.191,302.176z"/>
		<path fill="#FFFFFF" d="M322.266,302.165c-0.565,0.174-1.358,0.305-1.88,0.305c-1.63,0-2.618-0.675-2.618-2.938
			c0-2.187,0.902-2.883,2.521-2.883c1.651,0,2.38,0.609,2.325,3.122h-3.748c0.011,1.479,0.521,1.795,1.641,1.795
			c0.391,0,1.119-0.108,1.564-0.261L322.266,302.165z M318.876,298.934h2.716c-0.055-1.175-0.369-1.425-1.26-1.425
			C319.333,297.509,318.963,297.835,318.876,298.934z"/>
	</g>
</g>
<g>
	<polygon fill="#8A1D18" points="188.081,421.646 201.494,362.813 174.685,362.813 174.685,421.646 	"/>
	<polygon fill="#8A1D18" points="189.715,421.646 337.223,421.646 337.223,362.813 203.128,362.813 	"/>
	<polygon fill="#8A1D18" points="187.716,423.241 174.685,423.241 174.685,446.475 182.419,446.475 	"/>
	<polygon fill="#8A1D18" points="189.351,423.241 184.054,446.475 337.223,446.475 337.223,423.241 	"/>
</g>
<g>
	<path fill="#FFFFFF" d="M225.877,375.159c2.184,0,4.913,0.375,6.653,0.887l-1.843,3.958c-1.126-0.443-3.275-0.751-4.879-0.751
		c-5.186,0-7.336,0.887-8.871,8.188c-1.569,7.302,0.137,8.428,5.323,8.428c1.604,0,3.889-0.308,5.22-0.751l0.137,4.026
		c-1.945,0.512-4.811,0.853-6.994,0.853c-7.541,0-10.543-2.9-8.496-12.59C214.208,377.684,218.337,375.159,225.877,375.159z"/>
	<path fill="#FFFFFF" d="M251.673,399.52h-5.562c-2.354-6.517-4.026-9.075-5.562-9.075h-3.173l-1.911,9.075h-4.503l5.049-23.78
		h12.386c5.015,0,5.937,3.104,5.151,6.926c-0.75,3.412-2.865,6.346-7.643,6.517C247.409,389.762,248.978,392.56,251.673,399.52z
		 M238.162,386.725h6.722c1.74,0,3.003-1.159,3.515-3.479c0.512-2.491-0.205-3.685-1.877-3.685h-6.823L238.162,386.725z"/>
	<path fill="#FFFFFF" d="M279.04,387.407c-2.082,9.826-6.415,12.59-13.955,12.59c-7.574,0-10.747-2.764-8.666-12.59
		c2.047-9.655,6.38-12.248,13.921-12.248C277.879,375.159,281.086,377.752,279.04,387.407z M274.262,387.476
		c1.502-7.199,0.444-8.257-4.776-8.257c-5.22,0-6.755,1.058-8.257,8.257c-1.535,7.165-0.512,8.462,4.709,8.462
		C271.158,395.938,272.727,394.641,274.262,387.476z"/>
	<path fill="#FFFFFF" d="M300.502,380.106c-1.228-0.479-3.685-0.854-6.072-0.854c-3.787,0-5.527,0.785-6.039,3.104
		c-0.376,1.809,0.341,2.628,4.571,3.037c5.425,0.58,7.438,2.627,6.482,7.131c-1.193,5.596-4.98,7.472-11.839,7.472
		c-2.627,0-5.425-0.409-7.199-1.058l1.809-3.89c1.398,0.478,3.855,0.854,6.176,0.854c3.787,0,5.629-0.683,6.175-3.14
		c0.376-1.773-0.238-2.899-4.742-3.31c-5.151-0.512-7.233-2.149-6.312-6.551c1.193-5.595,5.117-7.744,11.771-7.744
		c2.593,0,5.322,0.443,7.063,1.058L300.502,380.106z"/>
	<path fill="#FFFFFF" d="M321.727,380.106c-1.228-0.479-3.685-0.854-6.072-0.854c-3.787,0-5.527,0.785-6.039,3.104
		c-0.376,1.809,0.341,2.628,4.571,3.037c5.425,0.58,7.438,2.627,6.482,7.131c-1.193,5.596-4.98,7.472-11.839,7.472
		c-2.627,0-5.425-0.409-7.199-1.058l1.809-3.89c1.398,0.478,3.855,0.854,6.176,0.854c3.787,0,5.629-0.683,6.175-3.14
		c0.376-1.773-0.238-2.899-4.742-3.31c-5.151-0.512-7.233-2.149-6.312-6.551c1.193-5.595,5.117-7.744,11.771-7.744
		c2.593,0,5.322,0.443,7.063,1.058L321.727,380.106z"/>
</g>
<g>
	<g>
		<path fill="#FFFFFF" d="M239.713,406.077c1.755,0,2.62,0.623,2.62,2.807c0,2.175-0.857,2.83-2.62,2.83h-1.739v-5.637H239.713z
			 M239.713,406.563h-1.156v4.666h1.156c1.447,0,1.997-0.493,1.997-2.345C241.71,406.918,241.161,406.563,239.713,406.563z"/>
		<path fill="#FFFFFF" d="M247.667,409.725h-2.92c0.008,1.326,0.429,1.609,1.375,1.609c0.291,0,0.824-0.089,1.173-0.219l0.121,0.485
			c-0.421,0.13-1.003,0.227-1.343,0.227c-1.237,0-1.908-0.502-1.908-2.176c0-1.601,0.622-2.135,1.836-2.135
			C247.157,407.517,247.667,407.985,247.667,409.725z M244.754,409.247h2.313c-0.049-1.019-0.315-1.237-1.067-1.237
			C245.143,408.01,244.819,408.285,244.754,409.247z"/>
		<path fill="#FFFFFF" d="M252.221,407.63h0.574c-0.412,1.367-0.946,2.717-1.521,4.084h-0.744c-0.404-1.375-0.905-2.952-1.447-4.084
			h0.591c0.437,1.019,0.905,2.369,1.253,3.583C251.42,410.023,251.89,408.818,252.221,407.63z"/>
		<path fill="#FFFFFF" d="M257.819,409.725H254.9c0.008,1.326,0.429,1.609,1.375,1.609c0.291,0,0.824-0.089,1.173-0.219l0.121,0.485
			c-0.421,0.13-1.003,0.227-1.343,0.227c-1.237,0-1.908-0.502-1.908-2.176c0-1.601,0.622-2.135,1.836-2.135
			C257.31,407.517,257.819,407.985,257.819,409.725z M254.908,409.247h2.313c-0.049-1.019-0.315-1.237-1.067-1.237
			C255.296,408.01,254.973,408.285,254.908,409.247z"/>
		<path fill="#FFFFFF" d="M260.175,410.662c0,0.396,0.089,0.583,0.388,0.882l-0.404,0.34c-0.34-0.323-0.51-0.591-0.51-1.188v-4.82
			h0.526V410.662z"/>
		<path fill="#FFFFFF" d="M262.15,409.651c0-1.666,0.59-2.135,1.852-2.135c1.27,0,1.86,0.469,1.86,2.135
			c0,1.674-0.582,2.176-1.86,2.176C262.732,411.827,262.15,411.325,262.15,409.651z M262.732,409.668
			c0,1.326,0.315,1.674,1.27,1.674c0.963,0,1.278-0.348,1.278-1.674c0-1.392-0.315-1.666-1.278-1.666
			C263.047,408.002,262.732,408.276,262.732,409.668z"/>
		<path fill="#FFFFFF" d="M269.447,411.827c-0.583,0-0.922-0.178-1.124-0.34v1.779h-0.526v-5.427
			c0.445-0.202,1.157-0.323,1.65-0.323c1.262,0,1.852,0.469,1.852,2.135C271.298,411.325,270.716,411.827,269.447,411.827z
			 M269.447,408.018c-0.396,0-0.809,0.057-1.124,0.17v2.556c0,0.38,0.518,0.582,1.124,0.582c0.954,0,1.27-0.331,1.27-1.657
			C270.716,408.276,270.401,408.018,269.447,408.018z"/>
		<path fill="#FFFFFF" d="M273.759,411.714h-0.526v-3.874c0.445-0.202,1.101-0.323,1.586-0.323c0.509,0,0.856,0.081,1.1,0.283
			c0.453-0.17,1.043-0.283,1.504-0.283c1.181,0,1.545,0.404,1.545,1.893v2.305h-0.525v-2.199c0-1.246-0.26-1.497-1.116-1.497
			c-0.275,0-0.736,0.041-1.133,0.179c0.105,0.291,0.17,0.688,0.17,1.213v2.305h-0.525v-2.199c0-1.246-0.251-1.497-1.108-1.497
			c-0.315,0-0.695,0.049-0.97,0.138V411.714z"/>
		<path fill="#FFFFFF" d="M284.397,409.725h-2.919c0.008,1.326,0.429,1.609,1.375,1.609c0.291,0,0.824-0.089,1.173-0.219
			l0.121,0.485c-0.421,0.13-1.003,0.227-1.343,0.227c-1.237,0-1.908-0.502-1.908-2.176c0-1.601,0.622-2.135,1.836-2.135
			C283.888,407.517,284.397,407.985,284.397,409.725z M281.486,409.247h2.313c-0.049-1.019-0.315-1.237-1.067-1.237
			C281.875,408.01,281.551,408.285,281.486,409.247z"/>
		<path fill="#FFFFFF" d="M286.753,411.714h-0.526v-3.874c0.445-0.202,1.157-0.323,1.65-0.323c1.181,0,1.609,0.404,1.609,1.893
			v2.305h-0.526v-2.199c0-1.246-0.259-1.497-1.181-1.497c-0.396,0-0.711,0.041-1.026,0.138V411.714z"/>
		<path fill="#FFFFFF" d="M292.254,410.339c0,0.695,0.186,0.986,0.76,0.986c0.292,0,0.559-0.04,0.776-0.121l0.122,0.47
			c-0.235,0.08-0.606,0.153-0.898,0.153c-0.93,0-1.285-0.275-1.285-1.48v-2.231h-0.72v-0.485h0.72v-0.857l0.525-0.218v1.075h1.513
			v0.485h-1.513V410.339z"/>
		<path fill="#FFFFFF" d="M302.245,409.158h-1.472v-0.469h2.054v2.951c-0.437,0.138-1.221,0.187-1.723,0.187
			c-1.746,0-2.579-0.688-2.579-2.984c0-2.305,0.833-2.903,2.579-2.903c0.502,0,1.141,0.089,1.577,0.219l-0.186,0.509
			c-0.34-0.129-0.946-0.21-1.383-0.21c-1.424,0-1.957,0.315-1.957,2.386c0,2.063,0.533,2.467,1.957,2.467
			c0.437,0,0.89-0.073,1.132-0.138V409.158z"/>
		<path fill="#FFFFFF" d="M307.011,407.541v0.542c-0.121-0.017-0.267-0.032-0.42-0.032c-0.606,0-1.148,0.169-1.148,0.541v3.122
			h-0.526v-4.084h0.526v0.291c0.153-0.194,0.565-0.404,1.148-0.404C306.737,407.517,306.882,407.524,307.011,407.541z"/>
		<path fill="#FFFFFF" d="M308.396,409.651c0-1.666,0.59-2.135,1.852-2.135c1.27,0,1.86,0.469,1.86,2.135
			c0,1.674-0.582,2.176-1.86,2.176C308.978,411.827,308.396,411.325,308.396,409.651z M308.978,409.668
			c0,1.326,0.315,1.674,1.27,1.674c0.963,0,1.278-0.348,1.278-1.674c0-1.392-0.315-1.666-1.278-1.666
			C309.293,408.002,308.978,408.276,308.978,409.668z"/>
		<path fill="#FFFFFF" d="M316.776,407.63h0.526v3.874c-0.453,0.202-1.165,0.323-1.65,0.323c-1.181,0-1.609-0.412-1.609-1.893
			v-2.305h0.526v2.199c0,1.246,0.259,1.496,1.172,1.496c0.396,0,0.72-0.04,1.035-0.146V407.63z"/>
		<path fill="#FFFFFF" d="M320.984,411.827c-0.583,0-0.922-0.178-1.124-0.34v1.779h-0.526v-5.427
			c0.445-0.202,1.157-0.323,1.65-0.323c1.262,0,1.852,0.469,1.852,2.135C322.835,411.325,322.253,411.827,320.984,411.827z
			 M320.984,408.018c-0.396,0-0.809,0.057-1.124,0.17v2.556c0,0.38,0.518,0.582,1.124,0.582c0.954,0,1.27-0.331,1.27-1.657
			C322.253,408.276,321.938,408.018,320.984,408.018z"/>
	</g>
</g>
<g>
	<g>
		<path fill="#FFFFFF" d="M254.294,430.219c0.685,0,1.564,0.119,2.14,0.282l-0.271,0.99c-0.435-0.163-1.184-0.261-1.738-0.261
			c-1.781,0-2.444,0.348-2.444,2.904c0,2.546,0.663,2.981,2.444,2.981c0.555,0,1.304-0.099,1.738-0.25l0.271,0.989
			c-0.586,0.175-1.455,0.283-2.14,0.283c-2.38,0-3.51-0.925-3.51-4.015C250.785,431.023,251.915,430.219,254.294,430.219z"/>
		<path fill="#FFFFFF" d="M258.079,435.201c0-2.252,0.837-2.883,2.564-2.883c1.738,0,2.563,0.631,2.563,2.883
			c0,2.263-0.814,2.938-2.563,2.938C258.905,438.139,258.079,437.464,258.079,435.201z M259.166,435.223
			c0,1.654,0.358,2.046,1.478,2.046s1.478-0.392,1.478-2.046c0-1.729-0.358-2.034-1.478-2.034S259.166,433.493,259.166,435.223z"/>
		<path fill="#FFFFFF" d="M266.469,437.986h-1.021v-5.211c0.63-0.272,1.641-0.457,2.412-0.457c1.575,0,2.205,0.576,2.205,2.578v3.09
			h-1.021v-2.959c0-1.447-0.293-1.763-1.391-1.763c-0.445,0-0.804,0.044-1.184,0.152V437.986z"/>
		<path fill="#FFFFFF" d="M276.055,433.472c-0.445-0.163-1.054-0.283-1.598-0.283c-0.793,0-1.194,0.098-1.194,0.816
			c0,0.456,0.304,0.642,1.249,0.729c1.38,0.119,1.978,0.555,1.978,1.61c0,1.382-0.804,1.795-2.238,1.795
			c-0.565,0-1.445-0.108-1.978-0.294l0.25-0.87c0.392,0.163,1.141,0.294,1.706,0.294c0.804,0,1.217-0.12,1.217-0.849
			c0-0.49-0.261-0.719-1.271-0.806c-1.271-0.108-1.966-0.445-1.966-1.522c0-1.371,0.857-1.773,2.271-1.773
			c0.554,0,1.249,0.108,1.836,0.282L276.055,433.472z"/>
		<path fill="#FFFFFF" d="M279.958,433.385v2.687c0,0.806,0.218,1.143,0.935,1.143c0.369,0,0.706-0.055,0.988-0.152l0.195,0.849
			c-0.348,0.131-0.901,0.229-1.357,0.229c-1.238,0-1.793-0.37-1.793-2.002v-2.752h-0.945v-0.914h0.945v-1.045l1.032-0.424v1.469
			h1.934v0.914H279.958z"/>
		<path fill="#FFFFFF" d="M283.861,432.471h1.021v0.402c0.206-0.283,0.695-0.555,1.478-0.555c0.185,0,0.38,0.011,0.564,0.032v1.001
			c-0.185-0.032-0.412-0.055-0.641-0.055c-0.738,0-1.401,0.218-1.401,0.675v4.015h-1.021V432.471z"/>
		<path fill="#FFFFFF" d="M292.174,432.471h1.021v5.211c-0.641,0.272-1.651,0.457-2.412,0.457c-1.575,0-2.205-0.588-2.205-2.578
			v-3.09h1.021v2.959c0,1.447,0.293,1.763,1.379,1.763c0.446,0,0.815-0.044,1.195-0.163V432.471z"/>
		<path fill="#FFFFFF" d="M299.74,437.845c-0.424,0.186-1.13,0.294-1.63,0.294c-1.694,0-2.694-0.675-2.694-2.938
			c0-2.252,1.011-2.883,2.694-2.883c0.5,0,1.217,0.108,1.63,0.261l-0.271,0.914c-0.37-0.163-0.858-0.25-1.314-0.25
			c-1.119,0-1.651,0.271-1.651,1.979c0,1.621,0.532,1.991,1.651,1.991c0.478,0,0.944-0.12,1.314-0.271L299.74,437.845z"/>
		<path fill="#FFFFFF" d="M302.795,433.385v2.687c0,0.806,0.218,1.143,0.935,1.143c0.369,0,0.706-0.055,0.988-0.152l0.196,0.849
			c-0.348,0.131-0.902,0.229-1.358,0.229c-1.238,0-1.793-0.37-1.793-2.002v-2.752h-0.945v-0.914h0.945v-1.045l1.032-0.424v1.469
			h1.934v0.914H302.795z"/>
		<path fill="#FFFFFF" d="M307.828,430.816c0,0.522-0.152,0.609-0.608,0.609c-0.467,0-0.619-0.087-0.619-0.609
			c0-0.479,0.152-0.544,0.619-0.544C307.675,430.272,307.828,430.338,307.828,430.816z M307.719,437.986h-1.021v-5.516h1.021
			V437.986z"/>
		<path fill="#FFFFFF" d="M309.937,435.201c0-2.252,0.837-2.883,2.564-2.883c1.738,0,2.563,0.631,2.563,2.883
			c0,2.263-0.814,2.938-2.563,2.938C310.763,438.139,309.937,437.464,309.937,435.201z M311.024,435.223
			c0,1.654,0.358,2.046,1.478,2.046c1.118,0,1.478-0.392,1.478-2.046c0-1.729-0.359-2.034-1.478-2.034
			C311.382,433.188,311.024,433.493,311.024,435.223z"/>
		<path fill="#FFFFFF" d="M318.328,437.986h-1.021v-5.211c0.63-0.272,1.641-0.457,2.412-0.457c1.575,0,2.205,0.576,2.205,2.578v3.09
			h-1.021v-2.959c0-1.447-0.294-1.763-1.391-1.763c-0.446,0-0.805,0.044-1.185,0.152V437.986z"/>
	</g>
</g>
</svg>
